<svg width="30" height="30" viewBox="0 0 30 30" fill="none" xmlns="http://www.w3.org/2000/svg">
<path d="M14.9991 2.5C12.0706 2.5 9.56978 4.33101 8.57896 6.91066C8.03106 6.75241 7.49942 6.63264 7.00265 6.54177C5.99462 6.35739 5.10189 6.28689 4.45962 6.26233C4.13786 6.25003 3.87726 6.24919 3.69446 6.25156C3.60301 6.25275 3.5309 6.25475 3.48019 6.25653L3.42037 6.2589L3.39413 6.2602C2.917 6.28653 2.53601 6.6675 2.50969 7.14463L2.50603 7.23069C2.50425 7.2814 2.50225 7.35351 2.50106 7.44496C2.49869 7.62776 2.49952 7.88836 2.51182 8.21012C2.53639 8.85239 2.60689 9.74512 2.79126 10.7531C2.95934 11.672 3.22632 12.7101 3.65275 13.75H3.4322C2.91736 13.75 2.5 14.1674 2.5 14.6823V15C2.5 16.3065 2.70044 17.5662 3.07225 18.75H26.9277C27.2995 17.5662 27.5 16.3065 27.5 15V14.6823C27.5 14.1674 27.0826 13.75 26.5677 13.75H26.2461C26.2475 13.6981 26.2481 13.646 26.2481 13.5938C26.2481 10.75 24.3001 8.36121 21.6659 7.68891C20.914 4.70711 18.2144 2.5 14.9991 2.5ZM14.9991 4.375C17.1055 4.375 18.9076 5.67751 19.6441 7.52106C17.4075 7.70647 15.5138 9.09974 14.6168 11.0469C14.2859 10.5589 13.9061 10.0898 13.4701 9.65386C12.5338 8.71746 11.4445 8.04024 10.3427 7.5499C11.0718 5.69112 12.8818 4.375 14.9991 4.375ZM24.3731 13.5938C24.3731 13.646 24.3721 13.6981 24.3703 13.75H15.959L15.9366 13.6872C15.936 13.6561 15.9356 13.625 15.9356 13.5938C15.9356 11.2638 17.8244 9.375 20.1544 9.375C22.4844 9.375 24.3731 11.2638 24.3731 13.5938ZM12.1444 10.9797C12.9474 11.7827 13.5299 12.7491 13.9504 13.75H11.3252L9.09835 11.5244C8.73212 11.1584 8.13854 11.1586 7.77252 11.5248C7.40651 11.891 7.40667 12.4846 7.7729 12.8506L8.6728 13.75H5.71044C5.1622 12.6554 4.83109 11.4842 4.63566 10.4158C4.47077 9.51429 4.40742 8.71292 4.38545 8.13847L4.38535 8.13586L4.38797 8.13596C4.96242 8.15793 5.76379 8.22127 6.66529 8.38618C8.48962 8.71986 10.6139 9.44921 12.1444 10.9797ZM3.83411 20.625C5.89264 24.7033 10.1197 27.5 15 27.5C19.8803 27.5 24.1074 24.7033 26.1659 20.625H3.83411ZM15.9366 13.6872C15.9441 13.7081 15.9516 13.7291 15.959 13.75L15.9366 13.6872Z" fill="#FBC63D"/>
</svg>
