<svg width="30" height="30" viewBox="0 0 30 30" fill="none" xmlns="http://www.w3.org/2000/svg">
<path d="M26.25 10.625V15.0273C24.9871 14.2188 23.4858 13.75 21.875 13.75C17.3876 13.75 13.75 17.3876 13.75 21.875C13.75 23.4858 14.2188 24.9871 15.0273 26.25H7.8125C5.56884 26.25 3.75 24.4311 3.75 22.1875V10.625H26.25ZM22.1875 3.75C24.4311 3.75 26.25 5.56884 26.25 7.8125V8.75H3.75V7.8125C3.75 5.56884 5.56884 3.75 7.8125 3.75H22.1875ZM28.75 21.875C28.75 25.672 25.672 28.75 21.875 28.75C18.078 28.75 15 25.672 15 21.875C15 18.078 18.078 15 21.875 15C25.672 15 28.75 18.078 28.75 21.875ZM26.067 18.933C25.8229 18.689 25.4271 18.689 25.183 18.933L20.625 23.4911L18.567 21.433C18.3229 21.189 17.9271 21.189 17.683 21.433C17.439 21.6771 17.439 22.0729 17.683 22.317L20.183 24.817C20.4271 25.061 20.8229 25.061 21.067 24.817L26.067 19.817C26.311 19.5729 26.311 19.1771 26.067 18.933Z" fill="#FBC63D"/>
</svg>
