<svg width="25" height="24" viewBox="0 0 25 24" fill="none" xmlns="http://www.w3.org/2000/svg">
<path d="M6.15412 4.61239L6.15412 4.6124C6.35243 4.97253 6.50112 5.37679 6.61819 5.75H19.0975C20.0964 5.75 20.8211 6.70189 20.5461 7.66167L20.5461 7.66169L18.7089 14.0708C18.7089 14.0708 18.7089 14.0708 18.7089 14.0708C18.3394 15.36 17.1558 16.2478 15.8104 16.2478H9.83163C8.47505 16.2478 7.28459 15.3455 6.92502 14.0421L6.16129 11.2734L4.89692 7.02712L4.89546 7.02221L4.89551 7.0222L4.89346 7.01477L6.15412 4.61239ZM6.15412 4.61239C5.80844 3.98468 5.16979 3.25 4.08063 3.25H3.51949C2.96629 3.25 2.51562 3.69651 2.51562 4.25M6.15412 4.61239L2.51562 4.25M8.61999 13.5786L8.86099 13.5121C8.98063 13.9459 9.37748 14.2478 9.83163 14.2478H15.8104C16.2608 14.2478 16.6553 13.9507 16.7784 13.5217C16.7784 13.5217 16.7784 13.5217 16.7784 13.5217L18.4327 7.75H7.20745L8.09034 10.7154L8.09037 10.7155L7.85076 10.7868L8.61999 13.5786ZM8.61999 13.5786L8.86099 13.5121L8.10724 10.7797L8.61999 13.5786ZM2.51562 4.25C2.51562 4.80349 2.96629 5.25 3.51949 5.25H4.08063C4.1101 5.25 4.13587 5.25412 4.17459 5.28297C4.22221 5.31845 4.29658 5.39769 4.39384 5.57429C4.59489 5.93939 4.73444 6.43781 4.89346 7.01476L2.51562 4.25ZM9.29913 21.25C10.5463 21.25 11.5594 20.2439 11.5594 19C11.5594 17.7561 10.5463 16.75 9.29913 16.75C8.05201 16.75 7.03882 17.7561 7.03882 19C7.03882 20.2439 8.05201 21.25 9.29913 21.25ZM9.29913 18.75C9.43982 18.75 9.55171 18.8632 9.55171 19C9.55171 19.1368 9.43982 19.25 9.29913 19.25C9.15844 19.25 9.04655 19.1368 9.04655 19C9.04655 18.8632 9.15844 18.75 9.29913 18.75ZM16.3352 21.25C17.5824 21.25 18.5955 20.2439 18.5955 19C18.5955 17.7561 17.5824 16.75 16.3352 16.75C15.0881 16.75 14.0749 17.7561 14.0749 19C14.0749 20.2439 15.0881 21.25 16.3352 21.25ZM16.3352 18.75C16.4759 18.75 16.5878 18.8632 16.5878 19C16.5878 19.1368 16.4759 19.25 16.3352 19.25C16.1945 19.25 16.0826 19.1368 16.0826 19C16.0826 18.8632 16.1945 18.75 16.3352 18.75Z" fill="#FBC63D" stroke="#FBC63D" stroke-width="0.5"/>
</svg>
