<svg width="30" height="30" viewBox="0 0 30 30" fill="none" xmlns="http://www.w3.org/2000/svg">
<path d="M23.4394 11.3379C23.831 10.9283 24.4438 10.8911 24.8756 11.2262L24.9993 11.3379L28.4847 14.9791C28.7912 15.1724 29 16.0002 29 16.0002C29 16.3879 28.8399 16.7309 28.5944 16.94L28.4843 17.0212L24.9993 20.6621L24.8756 20.7738C24.4918 21.0717 23.965 21.0754 23.5776 20.7848L23.4394 20.6621L23.3326 20.5327C23.0479 20.1313 23.0444 19.5804 23.3222 19.1752L23.4394 19.0308L25.2353 17.1522H14.965L14.834 17.1418C14.3629 17.0653 14 16.5825 14 15.9985C14 15.4147 14.3632 14.932 14.8343 14.8557L14.9651 14.8451H25.2353L23.4394 12.9693L23.3326 12.8399C23.0124 12.3883 23.0479 11.7474 23.4394 11.3379Z" fill="#FBC63D"/>
<path d="M23.4394 11.3379C23.831 10.9283 24.4438 10.8911 24.8756 11.2262L24.9993 11.3379L28.4847 14.9791C28.7912 15.1724 29 16.0002 29 16.0002C29 16.3879 28.8399 16.7309 28.5944 16.94L28.4843 17.0212L24.9993 20.6621L24.8756 20.7738C24.4918 21.0717 23.965 21.0754 23.5776 20.7848L23.4394 20.6621L23.3326 20.5327C23.0479 20.1313 23.0444 19.5804 23.3222 19.1752L23.4394 19.0308L25.2353 17.1522H14.965L14.834 17.1418C14.3629 17.0653 14 16.5825 14 15.9985C14 15.4147 14.3632 14.932 14.8343 14.8557L14.9651 14.8451H25.2353L23.4394 12.9693L23.3326 12.8399C23.0124 12.3883 23.0479 11.7474 23.4394 11.3379Z" fill="#FBC63D"/>
<path d="M20.0013 10.2089L20.0015 5.8125L19.995 5.61994C19.896 4.15645 18.6777 3 17.189 3H7.81404L7.62148 3.00649C6.15799 3.10545 5.00154 4.32393 5.00154 5.8125C4.99978 12.6111 4.99921 16.1679 5.00154 25.1875L5.00803 25.38C5.10699 26.8435 6.32546 28 7.81404 28H17.189L17.3815 27.9935C18.845 27.8945 20.0015 26.6761 20.0015 25.1875V20.7783" stroke="#FBC63D" stroke-width="3" stroke-linecap="round"/>
</svg>
