<svg width="30" height="30" viewBox="0 0 30 30" fill="none" xmlns="http://www.w3.org/2000/svg">
<path d="M3.75 21.25H26.25C26.9404 21.25 27.5 21.8096 27.5 22.5C27.5 23.141 27.0175 23.6694 26.3958 23.7416L26.25 23.75H3.75C3.05965 23.75 2.5 23.1904 2.5 22.5C2.5 21.859 2.98255 21.3306 3.60422 21.2584L3.75 21.25ZM3.74985 13.75L26.2499 13.7472C26.9403 13.7472 27.5 14.3067 27.5 14.9971C27.5 15.6381 27.0176 16.1666 26.3959 16.2389L26.2501 16.2472L3.75015 16.25C3.0598 16.2501 2.5 15.6905 2.5 15.0001C2.5 14.3591 2.98243 13.8307 3.60407 13.7584L3.74985 13.75ZM3.75 6.25H26.25C26.9404 6.25 27.5 6.80965 27.5 7.5C27.5 8.14105 27.0175 8.66939 26.3958 8.74159L26.25 8.75H3.75C3.05965 8.75 2.5 8.19035 2.5 7.5C2.5 6.85895 2.98255 6.33061 3.60422 6.25841L3.75 6.25Z" fill="#FBC63D"/>
</svg>
