<svg width="22" height="22" viewBox="0 0 22 22" fill="none" xmlns="http://www.w3.org/2000/svg">
<path d="M11 0C17.0751 0 22 4.92487 22 11C22 17.0751 17.0751 22 11 22C4.92487 22 0 17.0751 0 11C0 4.92487 4.92487 0 11 0ZM11 5.5C10.5823 5.5 10.2372 5.81037 10.1825 6.21305L10.175 6.325V10.175H6.325C5.86937 10.175 5.5 10.5444 5.5 11C5.5 11.4177 5.81037 11.7629 6.21305 11.8175L6.325 11.825H10.175V15.675C10.175 16.1306 10.5444 16.5 11 16.5C11.4177 16.5 11.7629 16.1896 11.8175 15.787L11.825 15.675V11.825H15.675C16.1306 11.825 16.5 11.4556 16.5 11C16.5 10.5823 16.1896 10.2372 15.787 10.1825L15.675 10.175H11.825V6.325C11.825 5.86937 11.4556 5.5 11 5.5Z" fill="#FBC63D"/>
</svg>
