<svg width="23" height="23" viewBox="0 0 23 23" fill="none" xmlns="http://www.w3.org/2000/svg">
<path d="M11.25 0C17.4634 0 22.5 5.03775 22.5 11.25C22.5 17.4622 17.4634 22.5 11.25 22.5C5.03662 22.5 0 17.4622 0 11.25C0 5.03775 5.03662 0 11.25 0ZM11.25 15.1875C10.6287 15.1875 10.125 15.6912 10.125 16.3125C10.125 16.9338 10.6287 17.4375 11.25 17.4375C11.8713 17.4375 12.375 16.9338 12.375 16.3125C12.375 15.6912 11.8713 15.1875 11.25 15.1875ZM11.25 5.34375C9.54135 5.34375 8.15625 6.72887 8.15625 8.4375C8.15625 8.90349 8.53401 9.28125 9 9.28125C9.42716 9.28125 9.78019 8.96383 9.8361 8.55199L9.84375 8.4375C9.84375 7.66084 10.4733 7.03125 11.25 7.03125C12.0267 7.03125 12.6562 7.66084 12.6562 8.4375C12.6562 9.04365 12.5044 9.34346 11.9307 9.93622L11.7784 10.0909C10.7905 11.0788 10.4062 11.7192 10.4062 12.9375C10.4062 13.4035 10.784 13.7812 11.25 13.7812C11.716 13.7812 12.0937 13.4035 12.0937 12.9375C12.0937 12.3313 12.2456 12.0315 12.8193 11.4388L12.9716 11.2841C13.9594 10.2962 14.3437 9.65576 14.3437 8.4375C14.3437 6.72887 12.9586 5.34375 11.25 5.34375Z" fill="#FBC63D"/>
</svg>
